<svg xmlns="http://www.w3.org/2000/svg" viewBox="0 0 64 64" role="img" aria-label="ChurchOps Count">
  <rect width="64" height="64" rx="15" fill="#0d0e10"/>
  <defs>
    <linearGradient id="short" x1="8" y1="44" x2="32" y2="20" gradientUnits="userSpaceOnUse"><stop stop-color="#3559f3"/><stop offset="1" stop-color="#6483ff"/></linearGradient>
    <linearGradient id="long" x1="23" y1="53" x2="55" y2="13" gradientUnits="userSpaceOnUse"><stop stop-color="#3559f3"/><stop offset="1" stop-color="#80a0ff"/></linearGradient>
  </defs>
  <g transform="translate(8.55 9.25) scale(.7)">
  <path d="M7 38.5 26.5 19a4 4 0 0 1 2.8-1.2h6.2c2.2 0 3.2 2.5 1.6 4.1L17.5 41.5a5 5 0 0 1-3.5 1.4H9.1c-2.6 0-4-2.6-2.1-4.4Z" fill="url(#short)"/>
  <path d="m18 49.7 37-37a5 5 0 0 1 3.5-1.5h3.1c2.1 0 3.2 2.5 1.7 4L25.7 52.8a4 4 0 0 1-2.8 1.2h-3.1c-2.4 0-3.5-2.6-1.8-4.3Z" transform="translate(-3 0)" fill="url(#long)"/>
  </g>
</svg>
